<?xml version="1.0" encoding="utf-8"?>
<!-- Generator: Adobe Illustrator 25.3.1, SVG Export Plug-In . SVG Version: 6.00 Build 0)  -->
<svg version="1.1" id="Layer_1" xmlns="http://www.w3.org/2000/svg" xmlns:xlink="http://www.w3.org/1999/xlink" x="0px" y="0px"
	 viewBox="0 0 792 612" style="enable-background:new 0 0 792 612;" xml:space="preserve">
<style type="text/css">
	.st0{fill:#C41F3E;}
	.st1{fill:#8B1D41;}
</style>
<g>
	<path class="st0" d="M334.3,339.7h-13.2v-57h13.2v48.8V339.7z M377.3,309.7c5.1,1.4,11,4.7,11,13.8c0,10.5-7.7,16.3-21.8,16.3h-20
		v-57h20.4c12.6,0,19.2,5,19.2,14.6c0,6.9-4.5,10.5-8.8,12.2V309.7z M359.7,305.5h5.2c5.1,0,8.6-2,8.6-6.5c0-3.1-1.9-6.7-8.3-6.7
		h-5.5V305.5z M365.4,329.8c5.7,0,9.5-2.3,9.5-7.2c0-5.3-3.8-7.5-9.7-7.5h-5.5v14.8H365.4z M432,326.4c-1.4,0.9-3.9,3-9,3
		c-9.1,0-15.2-7-15.2-18.1c0-11.3,6.1-18.2,15.2-18.2c4.1,0,6.3,1.2,8.4,2.5l6.8-9.3c-4.2-2.8-8.4-4.6-16.5-4.6
		c-17.5,0-27.5,11.9-27.5,29.6c0,18.2,10.5,29.5,27.5,29.5c10.9,0,15.1-3.7,17.1-5.1L432,326.4z M308.3,326.5
		c-1.4,0.9-3.7,2.9-8.9,2.9c-9.1,0-15.2-7-15.2-18.1c0-11.3,6.1-18.2,15.2-18.2c4.1,0,6.3,1.2,8.4,2.5l6.8-9.3
		c-4.2-2.8-8.4-4.6-16.5-4.6c-17.5,0-27.5,11.9-27.5,29.6c0,18.2,10.5,29.5,27.5,29.5c10.9,0,15.1-3.7,17.1-5.1L308.3,326.5z"/>
	<g>
		<path class="st0" d="M500.2,281.5c-1-1.3-2.6-2.5-5.1-2.5h-21.2c2.2,0,3.9,0.8,5.2,2.5c2.1,2.9,21.8,29.7,21.8,29.7
			s-19.7,26.8-21.8,29.7c-1.3,1.7-3,2.5-5.2,2.5h21.2c2.5,0,4.1-1.1,5.1-2.5l21.9-29.8L500.2,281.5z"/>
		<path class="st1" d="M484.5,288.9L484.5,288.9c-2.7-3.6-4.8-6.5-5.4-7.4c-1.3-1.7-3-2.5-5.2-2.5c0,0,0,0,0,0
			c-2.5,0-4.1,1.1-5.1,2.5l-21.9,29.8l21.9,29.8c1,1.3,2.6,2.5,5.1,2.5c0,0,0,0,0,0c2.2,0,3.9-0.8,5.2-2.5c0.6-0.9,5.4-7.4,5.4-7.4
			l0,0l-16.4-22.3L484.5,288.9z"/>
	</g>
</g>
</svg>
